<svg version="1.1" xmlns="http://www.w3.org/2000/svg" xmlns:xlink="http://www.w3.org/1999/xlink" width="378.31191" height="294.32372" viewBox="0,0,378.31191,294.32372"><g transform="translate(-50.34405,-37.24258)"><g data-paper-data="{&quot;isPaintingLayer&quot;:true}" stroke-dasharray="" stroke-dashoffset="0" style="mix-blend-mode: normal"><path d="M427.49261,179.75099v95.97188h-89.93307l-0.29243,0.58275c-26.69111,27.6282 -60.05287,41.58639 -99.21861,41.58639c-39.16575,0 -72.52964,-13.95819 -100.08952,-41.58639v-0.58275h-86.45367v-95.97188h46.70732v-1.45366c0,-38.68119 13.63587,-71.54559 41.19576,-98.88348c26.98142,-27.6282 60.055,-41.00578 98.638,-41.00578c38.29482,0 71.0781,13.37758 98.05952,41.00578c27.55776,27.34003 41.19576,60.20229 41.19576,98.88348v1.45366z" fill="#f2db3c" fill-rule="evenodd" stroke="none" stroke-width="1" stroke-linecap="butt" stroke-linejoin="miter" stroke-miterlimit="10"/><path d="M378.17681,178.29947v0.58061h50.47915v98.01042h-90.51582v0.28817c-26.98355,27.6282 -60.34531,41.8831 -100.09167,41.8831c-39.74636,0 -73.11024,-14.2549 -100.67015,-42.17127h-87.03428v-98.01256h46.99975v-0.58061c0,-39.26181 13.63373,-72.12619 41.1979,-99.7544c27.55989,-27.63034 60.34317,-41.30036 99.50892,-41.30036c38.58727,0 71.65658,13.67002 99.21861,41.30036c27.56203,27.6282 40.90759,60.49259 40.90759,99.75654zM376.43283,179.75099v-1.45366c0,-38.09844 -13.63159,-71.25528 -40.61515,-98.30073c-27.27172,-27.04972 -59.47439,-40.71761 -97.76921,-40.71761c-38.2927,0 -71.0781,13.67002 -98.05738,40.71761c-27.27172,26.75515 -40.61727,59.61955 -40.61727,98.30073v2.61703h-46.99975v93.93759h86.16763l0.29031,0.87092c26.68897,27.63461 60.05286,41.30036 99.21861,41.30036c39.16788,0 71.94901,-13.66788 98.64013,-41.30036l0.57848,-0.87092h89.35673v-93.93759h-49.90069v-1.16337z" fill="#000000" fill-rule="evenodd" stroke="none" stroke-width="1" stroke-linecap="butt" stroke-linejoin="miter" stroke-miterlimit="10"/><path d="M376.80633,179.75193l-0.00002,1.16405l49.90069,-0.00044l-0.00905,93.97362l-89.37112,0.0198l-0.5789,0.87134c-26.69111,27.63248 -59.53032,41.32398 -98.69819,41.32398c-39.16575,0 -72.587,-13.6904 -99.27598,-41.325l-0.29065,-0.87126l-86.1811,-0.01886l-0.00905,-93.97362l46.99975,0.00041l-0.00002,-2.61854c0,-38.68119 13.36891,-71.6026 40.64062,-98.35775c26.97928,-27.0476 59.82155,-40.74176 98.11425,-40.74176c38.29482,0 70.55512,13.6911 97.82684,40.74082c26.98356,27.04546 40.63944,60.26024 40.63944,98.35869v1.45452z" data-paper-data="{&quot;noHover&quot;:false,&quot;origItem&quot;:[&quot;Path&quot;,{&quot;applyMatrix&quot;:true,&quot;segments&quot;:[[324.449,177.13014],[[324.449,176.23364],[0,0],[0,-23.49601]],[[299.40089,115.60977],[16.64126,16.67943],[-16.81897,-16.68206]],[[239.10482,90.49847],[23.61712,0],[-23.61581,0]],[[178.63103,115.60977],[16.63862,-16.68075],[-16.81897,16.50039]],[[153.58161,176.23364],[0,-23.8554],[0,0]],[153.58161,177.84761],[124.596,177.84761],[124.596,235.78065],[177.73716,235.78065],[[177.9162,236.31776],[0,0],[16.45958,17.04277]],[[239.10614,261.78845],[-24.15424,0],[24.15555,0]],[[299.93932,236.31776],[-16.4609,17.04146],[0,0]],[300.29608,235.78065],[355.40402,235.78065],[355.40402,177.84761],[324.62935,177.84761],[324.62935,177.13014]],&quot;closed&quot;:true,&quot;fillColor&quot;:[0,0,0,1]}]}" fill="#ffe800" fill-rule="nonzero" stroke="none" stroke-width="0.5" stroke-linecap="butt" stroke-linejoin="miter" stroke-miterlimit="10"/><path d="M367.1473,178.29733c0,35.48141 -12.4725,66.01908 -38.2927,91.3227c-24.94714,25.59179 -55.41223,38.09844 -90.80613,38.09844c-35.6842,0 -66.14716,-12.50879 -91.38674,-38.09844c-25.52989,-25.30362 -38.29482,-55.84129 -38.29482,-91.3227c0,-35.77386 12.76493,-66.30939 38.29482,-91.61301c25.24172,-25.59392 55.70254,-38.10058 91.38674,-38.10058c35.3939,0 65.85685,12.50665 90.80613,38.10058c25.8202,25.30362 38.29482,55.84129 38.2927,91.61301z" fill="#cc262d" fill-rule="evenodd" stroke="none" stroke-width="1" stroke-linecap="butt" stroke-linejoin="miter" stroke-miterlimit="10"/><path d="M327.11704,88.72074c-24.66109,-24.72086 -54.25314,-36.93509 -89.06856,-36.93509c-35.3939,0 -64.69564,12.21421 -89.35459,36.93509c-24.65897,24.72086 -36.8433,54.38549 -36.8433,89.57659c0,34.90081 12.18219,64.56542 36.8433,89.28416c24.65897,24.723 53.96069,36.93936 89.35459,36.93936c34.81542,0 64.40745,-12.21635 89.06856,-36.93936c24.65683,-24.71874 36.55085,-54.38335 36.55085,-89.28416c0,-35.19112 -11.89402,-64.85573 -36.55085,-89.57659zM370.05464,178.29947c0,36.35233 -13.05739,68.0555 -38.5894,93.64942c-25.8202,25.58965 -57.15194,38.68119 -93.41675,38.68119c-36.8433,0 -68.17718,-13.09153 -93.70707,-38.68119c-25.8202,-25.59606 -38.87544,-57.29709 -38.87544,-93.64942c0,-36.6469 13.05525,-68.34794 38.87544,-93.93973c25.52989,-25.59392 56.86377,-38.38875 93.70707,-38.38875c36.26696,0 67.59656,12.79484 93.41675,38.38875c25.53203,25.59179 38.5894,57.29281 38.5894,93.93973z" fill="#000000" fill-rule="evenodd" stroke="none" stroke-width="1" stroke-linecap="butt" stroke-linejoin="miter" stroke-miterlimit="10"/><path d="M363.74896,178.29741c0,34.90081 -11.91779,64.62267 -36.57462,89.34141c-24.66111,24.723 -54.31027,36.96308 -89.12569,36.96308c-35.3939,0 -64.75302,-12.23998 -89.41199,-36.96298c-24.66111,-24.71874 -36.86717,-54.4407 -36.86717,-89.34151c0,-35.1911 12.2082,-64.91327 36.86717,-89.63414c24.65895,-24.72088 54.01809,-36.95872 89.41199,-36.95872c34.81542,0 64.46459,12.23795 89.12569,36.95881c24.65683,24.72086 36.57462,54.44292 36.57462,89.63404z" data-paper-data="{&quot;noHover&quot;:false,&quot;origItem&quot;:[&quot;Path&quot;,{&quot;applyMatrix&quot;:true,&quot;segments&quot;:[[[294.03504,120.99011],[15.20632,15.24581],[-15.20895,-15.24581]],[[239.10482,98.21156],[21.47131,0],[-21.82807,0]],[[183.9982,120.99011],[15.20763,-15.24582],[-15.20764,15.24581]],[[161.27626,176.23364],[0,-21.703],[0,21.52397]],[[183.9982,231.29682],[-15.20896,-15.2445],[15.20764,15.24713]],[[239.10482,254.078],[-21.82807,0],[21.47131,0]],[[294.03504,231.29682],[-15.20896,15.24713],[15.20632,-15.2445]],[[316.57662,176.23364],[0,21.52397],[0,-21.70301]]],&quot;closed&quot;:true,&quot;fillColor&quot;:[0,0,0,1]}]}" fill="#ff1200" fill-rule="nonzero" stroke="none" stroke-width="0.5" stroke-linecap="butt" stroke-linejoin="miter" stroke-miterlimit="10"/><path d="M61.079,189.93094h357.71296v77.65055h-357.71296z" fill="#000000" fill-rule="evenodd" stroke="none" stroke-width="1" stroke-linecap="butt" stroke-linejoin="miter" stroke-miterlimit="10"/><path d="M296.65195,247.22375l0.29243,14.54093l-14.50891,0.58275c1.45154,-27.6282 1.45154,-50.02663 0,-68.05763c14.21647,-3.19763 24.37292,0.58275 31.04357,10.76055c2.32245,3.78038 3.48154,8.14566 3.77398,13.67002c0.57848,5.23618 -0.29243,10.17781 -2.90094,13.95819c-2.90094,7.27047 -8.70493,11.63573 -17.40558,13.96245zM93.86226,197.78201l-1.74183,55.25854c-0.57848,3.78038 -2.03,6.69198 -4.06002,8.14566l-19.73016,2.03428l-0.57848,-0.58275l-0.87092,-13.08727h10.15433c1.45154,-1.45154 2.03,-3.77826 2.03,-7.27047c0.29031,-10.4681 0,-21.81354 -1.15909,-33.44501l-0.29031,-1.4558l-0.57848,-11.9239z" fill="#ffffff" fill-rule="evenodd" stroke="none" stroke-width="1" stroke-linecap="butt" stroke-linejoin="miter" stroke-miterlimit="10"/><path d="M296.65195,197.78201c4.64491,0.87518 8.9931,3.78038 12.47464,9.30901c4.35246,8.722 4.35246,16.86765 0,25.01117c-3.76971,6.39955 -9.57156,9.88964 -17.98618,10.17781l-0.29243,15.7043h-2.03v-59.61955z" fill="#ff1200" fill-rule="evenodd" stroke="none" stroke-width="1" stroke-linecap="butt" stroke-linejoin="miter" stroke-miterlimit="10"/><path d="M291.72101,240.82846l-0.57848,-41.59065l4.93308,0.58275c5.22337,1.4558 8.70065,4.361 11.0231,8.722c1.45154,3.20192 2.61062,7.5629 2.61062,11.9239c0,4.36527 -1.15909,8.43383 -2.89665,11.63573c-4.06855,5.8168 -8.70919,8.72627 -15.09167,8.72627z" fill="#ffffff" fill-rule="evenodd" stroke="none" stroke-width="1" stroke-linecap="butt" stroke-linejoin="miter" stroke-miterlimit="10"/><path d="M86.31857,200.10873l0.29031,2.61915v45.37317c-0.29031,4.361 -2.32031,6.98016 -5.80185,8.43383l-8.12431,0.87092v-2.03855l6.67277,-0.28817c2.61276,-0.58275 4.06215,-2.03855 4.35246,-3.49435c1.15909,-2.32245 1.4494,-6.39529 1.4494,-12.50238l-1.4494,-38.97364z" fill="#ff1200" fill-rule="evenodd" stroke="none" stroke-width="1" stroke-linecap="butt" stroke-linejoin="miter" stroke-miterlimit="10"/><path d="M232.82724,207.37919c-4.93094,3.49435 -7.83187,6.9823 -8.41248,10.18207c0,2.61915 1.16123,5.52435 2.90094,8.43383l4.35246,7.27047c1.16123,4.361 0,8.14138 -2.90094,12.50665l-8.70279,10.76055l-10.15433,-7.27047c6.38248,-4.94375 9.86402,-8.72627 9.86402,-11.3433c0.29031,-2.32672 -0.58062,-5.23618 -2.61062,-8.72627l-4.64277,-7.55864c-1.4494,-4.07283 -0.58061,-7.85535 1.73971,-12.21635l8.41462,-9.30901zM391.22993,218.13975c2.03,-2.32672 4.35246,-8.14138 7.834,-18.03102l11.0231,5.52863l-10.44462,19.19437v1.4558l12.47464,23.26294l-9.28127,5.52863l-0.87092,-1.16337l-9.28553,-18.9062l-1.45154,1.4558v18.03102h-10.44462c0.29243,-18.90193 0,-37.22539 -1.15909,-54.38763l11.31127,0.58275z" fill="#ffffff" fill-rule="evenodd" stroke="none" stroke-width="1" stroke-linecap="butt" stroke-linejoin="miter" stroke-miterlimit="10"/><path d="M193.9518,209.99622l8.41248,-9.88964l10.15433,7.27047c-5.51368,4.36527 -8.41248,8.43383 -8.41248,11.63573c0,1.45154 2.03,4.94375 5.80185,10.17781c2.90094,4.36527 3.48154,8.43383 2.03,11.63573c-1.45154,3.49009 -5.22125,8.722 -10.73279,15.7043l-3.77399,-2.03855l-3.4794,-2.03428l0.58061,4.361h-11.02524l-1.45154,-11.9239l-11.31341,-1.16337l-0.29031,1.4558l-2.03,10.76055h-10.15433l-0.57848,-0.87092l-5.80399,1.74183l-7.25125,-14.8291l-1.73971,1.45154v12.50665l-10.15433,0.58275l0.29031,-54.38763h15.9583c7.83187,4.361 12.18433,10.17781 12.76493,17.44827c0,4.94375 -2.61062,9.59718 -7.25339,13.96245c0.29031,5.8168 1.74183,10.76055 4.35246,14.54093l0.87092,-1.4558c4.35246,-17.74285 7.834,-32.28164 9.28339,-44.49799l0.29031,-0.58275h15.66587l7.5437,45.08074l0.58061,0.57848c4.93308,-2.32672 7.25339,-5.8168 7.25339,-10.17781c0,-2.32672 -0.87092,-4.94375 -3.48154,-8.14566l-4.64277,-7.85109c-1.16549,-3.48368 -0.58489,-7.26406 1.73543,-11.04658zM360.47879,254.49422l-9.86402,0.58275v0.28817h-12.47464l-0.87092,-11.63147l-1.15909,-0.87092h-10.15645l-0.28817,0.57848l-1.45154,11.63573l-10.73493,0.28817l-0.57848,-0.28817l10.73067,-53.80274h16.53893c2.32245,18.90193 5.22337,33.73318 8.70493,45.36891l0.28817,-0.29243l0.57848,-45.07647l15.96045,-0.58275l2.31819,0.87092c8.41248,7.27047 11.60799,14.25062 10.15645,20.06957c-0.29243,4.361 -2.90094,7.55864 -6.67491,10.4681c0.58275,4.06855 2.90094,10.76055 6.67491,20.93834l-8.12217,2.90946l-7.834,-15.41399c-1.74183,0.29243 -2.90094,1.4558 -2.32245,2.9052zM261.26019,216.68821c-2.32245,3.77826 -3.77399,8.14138 -3.77399,12.50238c0.29243,6.39955 2.90094,11.3433 7.54156,15.7043l6.96308,3.78038l-8.70065,7.85535c-11.31555,-4.36527 -16.53893,-14.2549 -15.95618,-28.79157c0.28817,-11.05299 5.21911,-20.362 15.37129,-26.46483l8.12645,7.55864c-4.35033,1.4558 -7.25339,4.36527 -9.57156,7.85535zM245.30186,255.0791l-11.60372,0.28817c1.45154,-20.64591 1.45154,-38.67692 -0.57848,-53.80274h11.60372l0.57848,1.16337c-1.45154,13.96033 -1.45154,31.40858 0,52.3512zM118.23092,242.86275l0.29031,-40.71547h11.60585c-1.29373,17.61243 -1.77809,35.27497 -1.45154,52.93183v0.28817l-10.15433,1.4558v-1.4558l-0.29031,-1.45154l-3.48154,2.03428c-1.45154,0.87092 -2.90094,1.4558 -3.77185,0.87092l-11.60585,-7.27047l-1.15909,-1.74183c0,-22.97689 -0.29031,-38.38875 -1.74183,-45.66134h11.60585l0.29031,0.57848c0.58061,6.10711 0.58061,19.19437 -0.29031,39.26607l9.57371,1.74183z" fill="#ffffff" fill-rule="evenodd" stroke="none" stroke-width="1" stroke-linecap="butt" stroke-linejoin="miter" stroke-miterlimit="10"/><path d="M355.54572,251.00413c-0.57848,1.16337 -0.87092,1.4558 -2.03,1.16337v-47.98594c6.38248,-1.4558 12.18647,0 17.11953,4.65344c3.18911,4.36527 4.34819,8.72627 2.89665,14.25062c-1.44726,3.78038 -3.47728,6.69198 -6.38248,9.0187l5.80399,19.48256l-0.57848,0.58275l-0.28817,-1.16337l-7.25339,-17.44827l-8.70493,3.49009zM405.73884,250.13321l-11.60799,-23.2672l-7.54156,9.59718v14.25062h-1.45154v-1.45154l-0.57848,-44.7883l0.87092,-0.29243c1.15909,0 1.15909,0.29243 0.57848,0.87092c0,12.50665 0.57848,21.81354 0.87092,28.21309c5.51156,-6.39955 10.73067,-15.7043 15.66373,-27.6282c0.29243,0 0.87092,0.29243 1.45154,0.87092c-1.45154,4.36527 -4.35246,10.76055 -8.70493,18.32345l11.8983,23.84782zM156.23758,224.5393c-0.86879,3.78038 -3.19123,6.69198 -6.67277,9.0187l5.22125,18.61162l-0.29031,0.29243l-6.38248,-17.45254l-9.57371,2.90946l-0.58061,15.12155h-1.45154l0.58061,-47.98594c6.67277,-0.87092 11.89616,0.87518 16.24649,5.23618c3.48368,4.35886 4.35246,9.30475 2.90306,14.2485zM124.32308,205.05248l0.58061,2.03855v43.91311c0,0.57848 -0.58061,0.57848 -1.45154,0.57848l-0.58061,-6.39529l-8.9931,6.39529c-4.35246,-0.57848 -7.834,-2.32245 -10.15433,-5.81254l-1.16123,-40.13699l1.16123,-0.58275l0.86879,0.58275l0.58061,39.5521c2.32031,2.61915 5.22125,4.07283 8.9931,4.361l8.70279,-6.10711v-38.38661z" fill="#ff1200" fill-rule="evenodd" stroke="none" stroke-width="1" stroke-linecap="butt" stroke-linejoin="miter" stroke-miterlimit="10"/><path d="M369.18372,210.28867c3.18911,4.361 3.76971,9.30475 1.73757,14.54093c-2.90094,6.98016 -7.54156,10.17781 -14.79709,10.17781l-0.57848,-0.28817l0.57848,-29.66675c5.22551,-0.57848 9.57799,1.4558 13.05953,5.23618z" fill="#ffffff" fill-rule="evenodd" stroke="none" stroke-width="1" stroke-linecap="butt" stroke-linejoin="miter" stroke-miterlimit="10"/><path d="M299.84105,232.68068c-0.86665,0.58275 -1.73757,0.87518 -3.18911,1.4558c-0.57848,-9.68604 -0.57848,-19.39796 0,-29.084c4.35246,1.4558 6.67491,4.36527 8.12217,9.59718c2.32245,7.85535 0.58275,13.67002 -4.93308,18.03102z" fill="#000000" fill-rule="evenodd" stroke="none" stroke-width="1" stroke-linecap="butt" stroke-linejoin="miter" stroke-miterlimit="10"/><path d="M329.43522,205.05248h6.38248c3.19337,13.08727 6.09431,29.084 8.9931,47.98594h-1.44726l-2.32245,-14.53881v-0.58275l-18.8571,0.58275l-2.90094,13.08301c0,0.58275 -0.57848,0.87518 -1.45154,0.58275l-0.57848,-1.16337l9.28127,-42.46371c0.58275,-2.61062 1.4494,-4.06429 2.90094,-3.4858zM185.82749,239.37268c-4.93094,-0.29243 -11.0231,-0.29243 -18.8571,0l-2.90094,13.66575h-1.45154v-2.9052l10.15433,-44.49799h7.83187l0.87092,0.87092c4.35246,21.23292 6.67277,37.22539 8.12431,47.40746h-1.45154zM240.37093,252.1675h-1.4494v-23.2672c0.57848,-9.88535 0,-17.44827 -0.29031,-22.97262l1.4494,-0.29243l0.29031,1.4558zM224.99537,206.50828v0.87092c-4.35246,4.36527 -6.38248,9.30901 -5.22125,13.67002l5.22125,9.59718c2.03,4.361 2.03,7.85535 0,11.3433l-6.38248,8.722l-1.4494,-0.57848l4.93094,-6.69198c3.48154,-5.52435 3.48154,-9.30475 0.87092,-12.79484c-4.35246,-7.27047 -6.09216,-13.08727 -4.64063,-16.86765c0.87092,-2.32672 2.90094,-4.94375 5.22337,-8.14138c0.57634,0 0.86665,0.29031 1.44726,0.87092zM201.20519,211.74448c-2.32031,3.49009 -2.32031,7.85109 0.57848,12.79482c3.48154,6.10711 4.93308,10.18207 4.93308,11.9239c-0.58061,4.94375 -2.90094,9.88964 -7.25125,14.25062l-1.16123,-0.57848c4.93308,-6.69198 6.96308,-12.50665 6.38248,-16.86765l-5.22125,-9.30475c-2.03214,-3.49435 -2.61276,-6.69198 -1.45154,-10.18207l5.22125,-7.85109l1.45154,0.57848z" fill="#ff1200" fill-rule="evenodd" stroke="none" stroke-width="1" stroke-linecap="butt" stroke-linejoin="miter" stroke-miterlimit="10"/><path d="M151.88511,229.19273c-4.35033,4.36527 -8.70279,6.98016 -13.34342,6.98016l0.29031,-29.66249c7.25339,0 12.76493,2.90946 15.08526,8.72627c2.03,5.22978 1.4494,10.17353 -2.03214,13.95605z" fill="#ffffff" fill-rule="evenodd" stroke="none" stroke-width="1" stroke-linecap="butt" stroke-linejoin="miter" stroke-miterlimit="10"/><path d="M264.15898,207.37919c-8.70065,7.27047 -12.18219,15.99673 -10.73067,25.88637c0.57848,4.65344 4.35246,10.4681 11.31554,16.86765l-2.03428,0.87092c-8.70065,-7.27047 -12.47464,-15.41399 -11.0231,-25.59392c1.45154,-7.85109 5.22337,-13.95819 11.60799,-18.90193l0.86665,0.58275v0.28817z" fill="#ff1200" fill-rule="evenodd" stroke="none" stroke-width="1" stroke-linecap="butt" stroke-linejoin="miter" stroke-miterlimit="10"/><path d="M340.17016,236.17076h-17.11527c1.45154,-11.33903 3.47728,-20.93834 5.79973,-29.07974h5.51156c2.54844,9.56057 4.48701,19.27337 5.80399,29.07974zM179.44714,207.37919c1.15909,3.49435 2.90094,13.08727 5.80185,29.66675h-17.69801l6.67277,-29.66675z" fill="#ffffff" fill-rule="evenodd" stroke="none" stroke-width="1" stroke-linecap="butt" stroke-linejoin="miter" stroke-miterlimit="10"/><path d="M359.89817,228.9003c-0.57848,0 -0.87092,-0.57848 -0.57848,-2.03428l0.57848,-16.86765c3.48154,0.29243 5.21911,2.90946 6.67065,7.27047c0.58061,5.23618 -1.4494,9.01658 -6.67065,11.63147zM143.7608,211.45203v-0.57848l4.35246,3.77826c1.45154,2.61915 2.32031,4.94375 2.03,7.27047c-1.4494,4.36527 -4.06002,6.98016 -7.25125,7.85535l-0.57848,-18.32345h1.44726zM327.98369,232.68068c1.45154,-10.17781 2.32245,-16.57736 3.77398,-18.90193c2.03,4.94375 3.48154,11.05299 4.06002,18.90193zM180.60624,233.558h-7.83187c0.57848,-6.10711 2.03214,-12.50665 4.35033,-18.32345l2.90094,12.21635zM236.01847,279.79784l1.15909,0.87518l1.45154,-0.58275l0.87092,-1.4558c0,1.4558 0.57848,2.61915 0.87092,2.03855l5.80185,-2.90946c2.03,-0.58275 2.61062,0 1.16337,0.57848l-1.16337,2.33098l2.61062,-0.58275c-1.15909,1.4558 -1.15909,2.61915 -0.57848,2.61915l2.32245,-2.61915l2.61062,-4.65344l1.45154,-2.03855l1.45154,-0.57848l1.45154,0.57848l2.32245,-0.87092l0.86665,0.87092c0,0.58275 0.58275,0.87518 1.16337,0.58275h2.31819c0.58275,0 0.87092,0.29243 0.58275,0.87092l0.86665,2.03855l3.48154,0.28817l-1.45154,1.16337c-3.48154,0 -3.48154,0.29243 -0.57848,1.4558l3.77399,1.74611h-2.32245c0.57848,1.16337 0.57848,1.4558 0,1.4558h-1.45154l-0.87092,0.57848l0.29243,2.32672l2.90094,2.03428l4.06002,-0.87092c0.87092,-2.03428 0.29243,-2.61915 -1.15909,-1.4558l-0.87092,0.29243h-0.87092l1.45154,-1.74183c0.87092,-0.58275 1.45154,-1.16337 0.87092,-1.4558l-0.87092,-2.03428l0.29243,-3.78038c0.57848,-0.58275 1.15909,-0.58275 2.03,0l0.87092,-2.61917c1.15909,-1.4558 2.03,-1.74611 2.90094,-1.4558l2.89665,1.4558c1.45154,0.57848 2.61489,1.16337 2.03,2.03428l-2.03,0.58275c-0.28817,-0.58275 -0.86665,0 -1.73757,0.28817c0,1.4558 0.29243,2.03855 1.45154,1.16337l3.18911,-0.57848l1.16337,2.03428l-2.90094,0.29243l-2.03,0.58275l3.76971,0.87092c2.03,-0.29243 2.90094,-0.29243 2.90094,1.16337l-0.28817,1.74183l-2.61489,1.4558l1.45154,1.16337l-0.28817,1.4558l2.90094,-0.58275v-2.32672l0.86665,-1.45154l0.57848,-1.4558l0.87092,2.32672c0.87092,-0.87092 1.45154,-0.87092 1.45154,-0.58275c-0.57848,2.61915 -0.57848,3.49009 0,3.49009c0.57848,0 0.87092,-0.87092 0.87092,-2.32672l1.15909,-2.03428l1.45154,-1.4558l0.87092,-0.57848v2.03428l0.57848,0.58275l2.32245,-1.4558l2.03,0.29243l1.73757,0.57848c-1.73757,0.87092 -2.90094,2.03428 -2.31819,2.32672c0.87092,0.58275 2.03,0.58275 2.31819,0l2.90094,-0.87092c1.45154,0.57848 3.48154,-0.58275 5.51156,-2.32672l4.64491,-4.07283h1.15909l-0.57848,2.03855c-8.12217,7.85109 -18.8571,13.95819 -31.04357,18.31919l-21.75803,5.8168l-20.59468,3.49435c-10.73493,0.57848 -25.24172,-1.4558 -43.51821,-6.69198c-17.4077,-4.361 -31.62205,-12.79482 -41.77638,-23.84782c4.35033,3.49009 6.96308,4.94375 7.83187,4.94375l1.45154,0.87092l0.87092,-0.87092l1.15909,-4.07283c0.29031,1.16337 0.87092,1.16337 1.45154,-0.29243l0.87092,-1.45154l0.87092,-0.58275l1.15909,2.32672l3.77185,-3.19763l2.03214,-0.58275l-0.58061,1.4558l-0.87092,0.87092l-1.45154,3.49435l4.64277,-2.03855l0.57848,2.03855l0.57848,0.57848l2.32245,-0.57848l2.03,0.87092c1.45154,0.57848 1.73971,1.16337 1.45154,1.4558c-0.58061,0.57848 -0.58061,1.16337 0,1.16337l1.45154,0.87092l0.29031,-0.58275c0.57848,-2.32672 0.57848,-3.77826 0,-3.77826c-1.45154,-0.58275 -1.73971,-0.87518 -0.87092,-2.03855l0.58061,-1.4558h-1.16123l-1.45154,1.16337c0,2.33098 -0.29031,2.90946 -0.87092,1.4558c-0.57848,-1.16337 -0.57848,-2.03428 0,-2.9052l1.45154,-2.03855l-1.45154,-0.87092l2.03214,-1.4558h1.73971l1.4494,-2.03428l1.45154,-0.87092l-1.45154,2.9052l4.06216,-2.9052h1.45154v0.87092l2.90094,0.57848l-2.61276,1.4558l2.90306,1.4558c2.61062,0 2.89879,0 2.61062,0.29243c-1.15909,1.16337 -1.15909,1.45154 0,1.45154l1.74183,1.16763l1.4494,-0.58275l1.15909,-1.4558l0.87092,0.58275c0.58061,0.28817 0.87092,0 1.45154,-0.58275l0.87092,-0.87092l1.16123,-0.58275v1.4558h1.73971l1.15909,0.58275h2.32031l-1.45154,1.74183h2.90094c-2.32031,0.58275 -3.48154,1.16337 -2.90094,1.4558h2.32031l2.03,1.16337l0.58061,0.87518h1.73971c1.4494,-0.87518 2.03214,-2.03855 0.57848,-2.33098v-1.16337l0.58061,-0.87092l-2.61276,-2.03428l1.15909,-0.87518v-1.45154l1.73971,2.03428l1.16123,2.32672l1.4494,0.87092l0.87092,-1.74183l0.86879,-0.58275c0.58061,0 0.58061,0 0.58061,-0.57848l0.86879,-2.32672l1.45154,-0.87518l-0.29031,1.74611l0.87092,0.57848l0.86879,-0.57848l0.58061,2.9052l1.4494,-1.45154c0.58061,-1.4558 1.45154,-1.74611 2.03214,-1.74611c0.87092,0 1.4494,0.29243 0.87092,0.87092l-0.87092,0.87518l-1.16123,2.9052l-0.87092,1.4558h2.03214c0.87092,-1.4558 1.4494,-1.4558 1.4494,-0.29243zM237.1797,284.16311v-1.16337h-1.15909l-1.45154,0.57848l1.16123,0.87092zM237.1797,287.06831c0,-0.57848 0,-1.16337 -0.57848,-1.16337l-1.45154,0.58275l0.58061,1.45154l0.29031,-0.57848zM246.75126,285.03402l2.03,0.57848l0.87092,-0.57848l-0.87092,-0.87092h-2.03zM251.97678,284.16311l1.45154,0.87092l1.15909,0.57848l1.45154,-1.16337l-0.57848,-0.87092l-0.87092,-0.87092l-1.15909,-0.58275l-0.29243,0.58275h-1.15909v1.4558zM253.42617,287.36074l-1.45154,1.16337c-0.29243,0.29243 -0.29243,0.29243 0,0.87092c2.61062,0.58275 2.89665,0.8752 1.45154,0.8752l-0.87092,0.57848l0.87092,0.57848l2.03,-2.03428l-0.58275,-2.03428h-1.44726zM211.06919,279.79784l-0.58061,0.87518v0.87092h0.87092l1.15909,-0.87092v-1.4558zM211.06919,285.03402v0.57848h0.86879l0.58061,-0.57848l-0.58061,-1.4558v0.87092zM215.42166,284.44914h-0.58061l-0.58061,1.16337h1.16123zM216.29044,284.16311l2.03,0.28817l0.87092,-1.45154l-0.87092,-1.4558l-1.15909,-0.29243l-0.87092,1.4558zM221.22138,287.36074l1.45154,-1.4558c0.28817,-0.29243 0,-0.87092 -0.58061,-1.4558h-0.87092l-1.15909,2.03855zM228.47477,285.6125l1.45154,0.87518c1.45154,0.57848 1.73971,0 1.73971,-0.87518c0,-1.16337 -0.28817,-1.45154 -1.4494,-1.16337l-0.87092,-0.87092l-0.58061,0.58275zM228.76508,289.39502l1.45154,-0.57848l-0.29031,-0.87518h-1.16123zM256.90773,290.84869c-0.58275,0.57848 -0.58275,0.87092 0,1.4558h1.45154c0.86665,0 1.45154,0 1.45154,-0.58275l-0.58275,-1.45154h-0.86665l-0.87092,-0.8752zM251.68434,292.88511l0.29243,0.29243l1.15909,-0.29243l-1.15909,-0.57848zM258.93773,288.52411l3.18911,1.74611h1.45154l0.57848,-0.8752l-0.86665,-1.4558h-1.16337l-0.28817,-0.57848l-1.16337,0.57848l-0.28817,-0.87092h-1.45154c-0.57634,0.29243 -0.57634,0.87092 0.00214,1.4558zM261.26019,284.44914l0.57848,1.4558l0.28817,0.58275l0.57848,-0.87518l0.58275,-1.45154l-1.16337,-0.58275zM275.76483,274.85195v1.4558l0.87092,-0.87092l-0.29243,-1.16337zM274.89391,285.03402l0.29243,0.87092h1.45154l1.15909,-0.87092l-1.15909,-0.87092h-0.87092zM193.66149,279.21722l-0.58061,0.57848c0.87092,0.29243 1.45154,0.29243 1.45154,0.87518h0.86879c0,-1.4558 0,-2.03855 -0.29031,-1.4558l-1.15909,-0.87518zM187.27901,285.90494l-0.58061,0.58275l0.58061,0.87092l-0.87092,0.57848l-1.15909,0.8752l1.15909,1.16337l0.87092,0.29243l1.45154,-0.87518l0.58061,-0.57848c0.29031,-1.4558 0.29031,-2.32672 0,-2.32672zM192.20995,285.90494l1.45154,1.4558l2.90094,0.57848l1.73971,-0.57848c1.16123,-0.29243 1.45154,-0.29243 1.45154,0l0.57848,1.4558l2.03,-0.29243h0.87092l0.87092,0.87092h1.4494v-2.32672l-1.74183,-1.4558h-2.03v-1.16337l0.87092,-1.45154l-1.73971,-0.29243l-1.4494,1.4558l-1.16123,-1.4558c0.58061,-0.58275 1.16123,-1.16337 0.58061,-1.4558l-1.45154,-1.16337v1.4558l-0.86879,1.16337l-0.57848,0.87092l-0.58061,1.4558l-0.86879,-0.58275l-1.45154,-1.45154l-1.45154,1.16337zM200.33426,277.76356c0.57848,0.57848 0.57848,0.87092 0,0.87092v0.58275l1.4494,0.87092l1.45154,-0.29243l-0.58061,-1.4558l-0.87092,-1.16337zM209.03705,287.36074l-0.58061,0.57848l-0.29031,0.58275c-0.58061,0.29243 -0.58061,0.87092 0,1.4558l1.45154,-0.58275l0.29031,-0.57848l0.57848,-0.87518l-0.57848,-0.57848h-0.87092zM179.15684,284.16311l1.73971,0.28817l2.03,-0.28817v-1.16337h-0.58061l-1.4494,0.57848zM176.25591,285.90494c0.86879,1.4558 1.45154,1.4558 1.45154,1.16337l0.29031,-1.4558l-1.45154,-1.45154zM182.34807,286.48768l-0.87092,0.87092l1.45154,1.16337c0.87092,0.29243 1.45154,0.29243 0.87092,-0.58275l-0.87092,-2.03428z" fill="#000000" fill-rule="evenodd" stroke="none" stroke-width="1" stroke-linecap="butt" stroke-linejoin="miter" stroke-miterlimit="10"/><path d="M253.42617,268.16423v-0.58275M252.55526,331.5663" fill="none" fill-rule="nonzero" stroke="#333991" stroke-width="0.681" stroke-linecap="round" stroke-linejoin="round" stroke-miterlimit="2.613"/><path d="M288.85945,123.65679c0.97174,0.624 -0.26743,2.29634 -1.16767,2.33487c-0.01718,-1.18438 0.82178,-1.5131 1.16767,-2.33487zM302.09196,155.18015c-0.61517,2.91337 -1.55163,10.86931 -6.61648,9.34043c1.44438,-3.87443 5.01471,-5.62292 6.61648,-9.34043zM288.47085,151.28854c-0.57432,1.89566 -1.19599,7.10352 -4.67068,7.39462c-1.90681,-3.26669 3.86283,-4.37864 4.67068,-7.39462zM299.36755,129.88374c0.02832,-2.00013 4.57782,-1.09896 3.11348,0.38907c-1.37613,2.77548 -3.36419,4.9381 -6.22695,6.22695c1.2531,-1.99038 2.78337,-3.70311 3.11348,-6.61602zM300.24968,129.27971c-0.03482,0.013 -0.06871,0.02739 -0.10261,0.04179c0.03389,-0.01439 0.06779,-0.02832 0.10261,-0.04179zM270.91912,164.36458c0.27532,0.30828 0.54739,0.61935 0.81667,0.9346c-2.23784,-1.91331 -4.31365,-3.98865 -6.22649,-6.22649l-0.00046,-0.00046v0c-7.8603,-5.6986 -22.91465,-10.07214 -28.79942,-17.12412c-2.87298,-3.44312 -2.22995,-8.27769 -5.83742,-11.6753c-0.84731,2.65523 -0.92021,6.08488 -2.33487,8.17276c0,-2.98394 0,-5.96742 0,-8.9509c-1.85481,-0.4276 -0.53578,2.31863 -1.94581,2.33487c0.59103,-0.87564 0.82549,-3.99468 -0.77814,-3.89161c-1.52842,4.43947 -0.7201,11.21474 -3.11348,14.78924c0.39789,-2.28845 1.05485,-6.9568 -0.7786,-8.17322c-3.45565,2.12363 -3.66736,10.86142 -7.00509,14.40018c0.13325,-3.10976 1.54792,-4.93903 1.5572,-8.17322c-2.56237,2.23784 -3.99793,5.60203 -4.28115,10.11857c-3.97658,1.34178 -4.56714,6.07002 -7.00509,8.9509c1.4091,-6.65873 9.35064,-13.95679 1.94627,-19.45899c-1.55024,6.88205 -2.56284,14.30175 -6.61602,18.68039c-0.143,-1.71924 0.98289,-3.62047 1.16721,-5.83788c0.30364,-3.64647 0.09239,-8.77308 -2.33487,-10.11857c-0.99449,0.04364 -0.77257,1.3037 -0.77814,2.33487c-0.14393,1.54281 0.3561,3.72958 -0.38907,4.67021c-1.25356,-0.08543 -1.64681,0.68853 -3.11348,0.38907c-3.85818,2.9598 -2.47416,8.45411 0,11.6753c-1.25913,-0.14021 -2.24341,-1.8432 -3.50254,-0.7786c0,1.42674 0,2.85394 0,4.28115c0,1.29674 0,2.59441 0,3.89161c0.72474,3.29733 3.2783,4.76493 6.22695,5.83788c0.7916,-2.32188 1.2076,-5.01935 3.89161,-5.44882c1.01492,0.67135 1.07203,2.30145 2.33534,2.72441c4.10611,1.73502 7.42573,-1.05856 9.34043,-1.94581c2.85719,-1.3246 7.31569,-1.41142 7.78323,-4.28115c-0.92624,-2.08323 -0.14857,-4.80903 0.38907,-6.61602c-5.05418,-6.45213 8.51122,-12.5319 13.62157,-7.00509c-5.00403,-0.72289 -7.32869,1.23313 -10.11857,2.72441c0.53764,1.45785 -0.44153,2.17563 0.38907,3.50254c2.20209,0.35889 2.73369,-2.20488 5.05928,-2.72441c4.0569,-0.90674 9.07764,1.07063 10.50763,3.89161c-1.96298,-1.27956 -4.82203,-1.66399 -8.17276,-1.55674c-3.38555,1.5442 -4.22543,5.63453 -7.78369,7.00509c1.87477,3.33122 0.02925,6.82773 -1.5572,8.95136c-6.36809,0.85149 -9.97092,2.18166 -16.34552,2.72441c-1.33899,1.25588 -1.8627,3.32658 -1.5572,6.22742c3.97843,-0.92206 13.57515,1.39935 14.78924,-5.05975c5.72135,-0.64396 11.06709,-4.01325 10.50763,-8.56183c4.72082,-2.80473 13.75714,0.24468 15.17785,3.11394c-2.59394,-1.91934 -9.38686,-2.45095 -10.89717,0.7786c2.32837,0.73682 -1.32924,1.27074 -0.38907,3.11348c3.54433,1.00656 4.63493,-2.49645 8.17276,-1.94581c4.02208,0.62585 7.25673,6.48602 6.22695,11.2867c-0.82178,-3.32983 -2.68448,-5.61874 -5.05928,-7.39509c-7.40948,-1.32831 -9.25221,6.51991 -15.56692,2.72487c-3.04058,5.00078 -10.72352,2.99508 -13.62157,8.17229h-25.68548c-0.78046,-2.07302 -2.55355,-3.15387 -5.05928,-3.50208c0.21496,1.21131 0.31757,2.53637 0.77814,3.50208h-1.93606c0.04132,-3.28712 -0.97685,-5.51521 -2.73369,-7.00509c-4.32247,-0.34728 -5.39264,-3.94826 -8.95136,-5.05928c-0.16064,4.86707 0.15786,9.255 2.05491,12.06437h-3.22212c-2.20952,-3.6279 -2.47602,-9.19929 -4.67021,-12.84251c-1.42581,1.68767 -4.04575,2.1812 -5.44882,3.89161c0.09239,3.84936 -0.43596,5.90892 0.38907,8.9509h-2.72441c-1.55535,-2.85534 -1.04603,-7.77487 -2.33487,-10.89717c-1.03628,1.41745 -1.5001,4.63818 -4.28115,3.11394c0.38489,3.40226 1.82045,7.10862 4.66557,7.78323h-6.16799c0.14857,-0.10864 0.26278,-0.23678 0.33475,-0.38907c-1.06135,-1.14446 -1.79306,-2.61809 -2.72441,-3.89208c-1.21967,-1.66677 -3.68269,1.27028 -3.50254,3.50301c0,0.25953 0,0.5186 0,0.77814h-31.65569c-0.02971,-13.21672 -0.22518,-40.50769 6.98095,-47.71381c0.04829,-0.04829 0.10121,-0.10168 0.15693,-0.15878l-0.00046,0.00371c1.32831,-0.09843 1.86966,-0.98381 3.50254,-0.7786c1.83066,1.93141 3.24162,4.28254 3.89161,7.39462c2.3553,-0.36864 4.19525,-1.25356 5.83742,-2.33534c0.22796,-2.3033 -0.38071,-3.77044 -0.77814,-5.44835c1.14631,-3.00437 4.47382,-3.82893 8.56183,-3.89161c1.66167,0.67321 0.64396,4.02579 1.94581,5.05928c5.45903,-1.03999 -0.17503,-10.64042 6.61602,-8.9509c2.71048,0.67414 1.25728,5.15353 5.44835,5.05928c1.96113,-1.28281 -0.4485,-6.93452 1.5572,-8.17322c3.43058,1.49917 5.98878,3.87026 8.9509,5.83788c2.4853,-1.53631 0.338,-7.70476 2.72441,-9.33996c2.61577,1.66445 3.93804,4.62379 6.22695,6.61602c3.20262,-0.94853 2.41009,-5.89267 3.89161,-8.56183c2.2773,1.48477 2.14313,5.38103 5.05928,6.22695c2.35762,-1.40306 -0.32175,-4.57968 0.77814,-6.61602c1.90402,1.07946 1.81256,4.15486 4.67068,4.28115c1.66538,-3.09862 -2.7258,-5.18139 -1.5572,-7.78369c1.72156,0.61332 1.89241,2.7778 3.89161,3.11348c5.33414,-1.8757 0.0845,-9.32604 2.33534,-11.6753c2.21927,0.24514 2.44723,2.48205 4.28068,3.11394c3.22723,-3.28851 -1.52517,-5.7571 -1.55674,-9.34043c3.19519,0.04782 3.83404,2.65198 6.61602,3.11394c1.31067,-3.1093 -2.80751,-5.90195 -2.33534,-8.17322c2.1162,-0.04086 1.82463,2.32698 4.28115,1.94534c0.87517,-4.15997 -4.1219,-5.70603 -4.67021,-9.7295c4.21429,-2.07952 7.17548,4.751 10.50763,1.16767c-1.09756,-4.48079 -2.95887,-8.19783 -5.44835,-11.28623c4.64932,-3.68176 10.29778,6.23392 15.95645,1.55674c-0.32128,-2.40312 -2.93473,-2.51409 -2.72441,-5.44835c-1.29628,-1.2986 -3.9464,-1.24242 -4.67021,-3.11348c4.40047,-7.21448 9.56096,3.41294 14.78878,2.33441c0.10586,-2.44027 -1.82649,-2.84373 -1.16721,-5.83742c-0.87981,-2.10366 -3.90368,-2.06373 -3.50254,-5.44835c3.79086,0.87935 6.98512,2.35437 10.11857,3.89161c4.65257,-1.18531 7.88676,-3.78854 13.62157,-3.89161c1.28235,-0.79346 2.72905,-1.4221 3.89161,-2.33487c3.40969,-0.8436 4.9641,0.09703 7.39462,-1.16767c1.97088,-1.0256 2.3878,-4.47429 6.22695,-3.11394c2.15009,5.89267 13.12061,2.9663 12.06391,12.06484c4.97339,-1.93374 5.31835,2.48948 7.78415,5.05928c2.3163,2.41427 5.84578,3.48862 8.56183,5.44882c2.18352,1.57531 3.5759,4.37493 5.83788,5.83742c6.39363,4.13443 13.77897,6.55474 18.67993,12.06437c5.45996,3.40969 14.39368,5.89128 14.78924,7.39416c2.71234,4.60986 9.23875,9.67518 9.7295,16.34598c0.35239,4.78814 -4.70736,10.98399 -8.17276,12.84297c-1.70159,-1.67188 -2.3553,-4.39118 -3.89161,-6.22695c-1.98156,0.5265 -3.13158,1.25728 -3.50301,-1.16767c-1.75127,-0.45407 -0.42018,2.17423 -2.33487,1.5572c-1.87199,0.57432 -0.35843,-2.23598 -1.94581,-1.94581c-0.52,0.38814 -0.76421,1.05206 -1.55674,1.16767c-1.3232,0.02554 -0.59567,-1.9992 -1.94581,-1.94581c-12.59597,2.87251 -22.95643,-5.56721 -33.4701,-8.56229c-1.5897,-0.69224 -2.77409,-3.77229 -5.44789,-4.28068c-1.34131,-0.25536 -3.11301,0.91139 -5.05928,0.77814c-3.06612,-0.21032 -5.44649,-2.53127 -7.39416,-2.33487c-2.07952,0.20986 -3.81083,2.89201 -5.83788,3.11348c-1.46667,0.16018 -1.59388,-1.31345 -3.11348,-0.38907c0.26325,2.85023 4.33268,1.89427 5.83742,3.50254v0c1.80791,1.82416 4.18829,3.07633 5.05928,5.83696v0.00046v0c-0.2145,2.68634 2.29309,4.70225 1.55674,6.61602c-2.50573,1.22431 -2.30052,-3.3238 -6.22649,-1.94581c-0.27439,2.7388 0.59475,4.33454 1.94581,5.44835c0.27625,8.75311 5.49478,12.34062 10.1181,16.73459c5.44974,5.17907 10.56567,11.21752 17.51365,14.01064c3.16176,1.27074 7.04316,0.82364 8.17322,5.05928c-1.14771,1.37056 -2.7778,2.04377 -4.28115,2.33534c-12.01562,2.32977 -20.8198,-3.10001 -26.07501,-9.34043c-0.26882,-0.31571 -0.54135,-0.62725 -0.81667,-0.93553zM350.06066,189.81699c2.13848,-0.00371 4.28765,-0.00743 6.44191,-0.00836l0.00557,0.00836h-6.44749zM191.95402,185.14724c1.3896,-0.42621 1.54142,-2.0902 3.11348,-2.33487c-1.11706,-1.60688 -1.09849,-4.34986 -3.89208,-4.28115c0,0.38907 0,0.77907 0,1.16813c0.31803,1.75731 -0.74982,4.90096 0.7786,5.44789zM182.61359,170.748c-1.1426,7.10955 2.2332,9.70118 6.61602,11.28623c0.75167,-6.71909 -3.48165,-8.45365 -6.61602,-11.28623zM179.88918,173.86101c0.10539,-2.70026 -0.21218,-4.9771 -1.16767,-6.61602c-1.58924,0.6161 -3.01923,1.39192 -3.50254,3.11348c1.33156,1.39285 2.2123,3.23605 4.67021,3.50254zM186.89427,165.68825c0.52603,0.12211 0.74332,0.55342 1.55674,0.38907c-0.09054,-2.50387 -0.62539,-4.56389 -0.3886,-7.39462c-1.24985,-0.34125 -0.80692,1.00889 -1.5572,1.16767c-0.09843,-4.44225 -3.19333,-5.8871 -5.83742,-7.78369c0.20475,3.55687 2.58652,4.93718 3.50254,7.78369c-1.4532,-0.62214 -1.72992,-2.42123 -3.50254,-2.72441c-0.5265,2.22577 1.14956,2.48066 0.38907,3.89208c1.14121,-0.44478 1.44531,-0.22982 1.94581,0.77814c1.13378,1.46017 2.43145,2.75784 3.89161,3.89208zM186.5052,150.5104c-0.29621,-1.5196 -0.4276,-3.20494 -2.33487,-3.11348c-0.00046,1.81627 0.47171,3.16037 2.33487,3.11348zM188.0624,145.84019c-0.90164,1.5637 -0.13557,4.79464 -0.38953,7.00509c1.90031,-0.74424 3.00483,-6.34024 0.38953,-7.00509zM212.96928,137.27836c-1.26563,1.4597 -1.39145,4.05736 -1.5572,6.61602c2.34137,-0.3835 1.31763,-4.13165 1.5572,-6.61602zM299.75708,113.14915c1.73317,3.06612 6.83005,2.76851 11.6753,2.72394c3.21051,-6.22324 -10.47374,-9.3525 -11.6753,-2.72394zM291.19479,112.37055c3.95986,2.03309 9.82142,-4.231 10.11857,-7.00555c0.59428,-5.5556 -5.2566,-7.23027 -8.56183,-11.6753c-2.77966,-3.73794 -4.17065,-7.9903 -7.78415,-6.61602c-2.94401,4.07361 1.89984,8.40769 1.5572,11.6753c-0.26975,2.57491 -2.36412,1.83299 -3.11394,4.67021c0.30503,2.28984 3.05637,2.13338 3.50301,4.28115c1.48245,1.50195 2.53637,3.43105 4.28115,4.67021zM264.73024,96.02457c-0.00882,2.04238 2.48391,4.60707 4.67021,4.67068c3.16223,0.09193 7.69223,-6.54731 8.56229,-8.95136c1.47874,-4.08615 -1.4871,-14.53528 -5.05928,-15.17785c-2.09856,-0.37746 -4.65721,1.34456 -5.05928,2.72441c-1.3882,4.75889 3.00112,5.00543 3.50301,9.72996c-2.1942,3.33076 -6.60024,3.01319 -6.61695,7.00416zM305.20543,163.35291c0.35471,1.5326 -0.48053,5.22039 -2.33534,5.83788c-1.21688,-2.49877 1.71784,-3.9074 2.33534,-5.83788zM302.87009,160.2399c0.34496,1.90866 -1.30603,5.17489 -2.72394,6.61602c-2.08231,-2.29588 2.32466,-4.26629 2.72394,-6.61602zM295.865,159.07223c0.03807,1.32506 -2.98673,6.26642 -5.44835,3.89208c0.71499,-2.39895 4.46454,-1.76242 5.44835,-3.89208zM290.41619,153.23435c0.21125,2.4217 -0.89189,6.88809 -3.50301,7.78369c-1.25588,-3.52576 2.71744,-5.01843 3.50301,-7.78369zM283.80017,149.7318c1.51913,0.99867 -0.95689,7.63466 -3.50254,4.67068c0.50189,-2.22252 3.00066,-2.44816 3.50254,-4.67068zM296.25407,149.34273c-0.10632,3.78808 -1.48988,9.6645 -5.44835,10.89717c-0.36493,-4.28904 4.40604,-6.72606 5.44835,-10.89717zM280.29809,147.39693c0.27811,1.06924 -0.94853,3.97193 -2.72441,4.28115c-0.25071,-2.58559 2.07209,-2.59766 2.72441,-4.28115zM279.12995,142.72671c0.19546,2.06095 -2.3047,6.71166 -4.67021,6.22695c-0.57803,-2.72255 3.89858,-3.57544 4.67021,-6.22695zM274.4602,142.72671c-0.81435,0.90396 -1.5326,3.43383 -3.11394,2.33487c0.19407,-1.6222 1.75963,-1.87245 3.11394,-2.33487zM272.12486,139.61324c0.66717,0.69317 -0.7136,2.63991 -1.94581,2.72441c-1.01631,-1.30045 1.3181,-1.85109 1.94581,-2.72441zM331.28045,137.2779c1.07296,3.21376 -3.20169,3.92272 -5.44882,5.05928c1.95881,-1.54327 2.65059,-4.3545 5.44882,-5.05928zM328.94557,134.94349c1.59388,0.71639 -1.39749,3.15573 -2.33487,3.89161c-0.54367,-1.07806 1.52424,-2.87437 2.33487,-3.89161zM326.6107,134.16488c-0.20289,3.17058 -2.11156,4.63446 -4.28161,5.83742c1.5586,-1.81441 1.02421,-5.72228 4.28161,-5.83742zM318.0484,133.38628c1.49267,1.82695 -1.73734,5.47296 -3.50301,6.61602c1.15281,-2.22066 2.39848,-4.34707 3.50301,-6.61602zM311.82145,133.38628c0.90164,2.07906 -0.82271,4.87775 -2.72441,5.44882c0.93924,-1.78516 1.96484,-3.48397 2.72441,-5.44882zM323.49676,133.77535c-0.72614,3.68408 -3.06055,5.76081 -6.22742,7.00509c1.87245,-2.21045 2.26152,-9.40914 6.22742,-7.00509zM311.82145,141.16997c0.67692,-1.92213 1.5637,-6.99487 3.11301,-9.33996c3.28201,1.89845 -1.26656,7.5808 -3.11301,9.33996zM311.43238,131.44048c-1.41513,2.34787 -3.2769,4.24818 -5.44882,5.83788c1.5716,-1.97923 1.55117,-7.46612 5.44882,-5.83788zM307.15077,130.66188c-1.0451,3.36512 -4.00397,4.81693 -5.83742,7.39462c0.61796,-2.0122 1.79445,-8.79629 5.83742,-7.39462zM298.19988,127.54886c-0.20846,4.20129 -2.96491,5.85646 -4.67068,8.56183c-0.16761,-2.37852 2.58605,-5.19346 2.72441,-8.56183c0.64907,0 1.29767,0 1.94627,0zM293.14106,126.38119c0.38907,0 0.77814,0 1.16721,0c0.00511,2.98905 -2.05166,3.91622 -3.11301,5.83742c-0.54925,-1.59713 1.73502,-3.70497 1.94581,-5.83742zM291.58386,124.82446c0.53207,1.12078 -0.76003,3.24765 -2.33487,3.50254c1.01121,-0.93506 0.57617,-3.31497 2.33487,-3.50254z" fill="#000000" fill-rule="evenodd" stroke="none" stroke-width="1" stroke-linecap="butt" stroke-linejoin="miter" stroke-miterlimit="10"/></g></g></svg>